PathFileType	4	(X/Y/Z)	D:\TRACE\spot_10-12-23\spot_arm_body_motion_1_5-v60.trc
DataRate	CameraRate	NumFrames	NumMarkers	Units	OrigDataRate	OrigDataStartFrame	OrigNumFrames
100.00	100.00	      38	9	mm	100.00	6126	      7000
Frame#	Time	front left toe			Front right toe			aft left toe			aft right toe			Arm			FL body			FR body			AL Body			AR Body			
		X1	Y1	Z1	X2	Y2	Z2	X3	Y3	Z3	X4	Y4	Z4	X5	Y5	Z5	X6	Y6	Z6	X7	Y7	Z7	X8	Y8	Z8	X9	Y9	Z9	

6126	61.250	-203.05629	36.55249	-445.25299	178.59433	40.42548	-421.05783	-257.34140	12.40379	150.17102	132.43610	18.77712	184.24458	7.57058	781.15533	-722.69550	-128.58411	609.79297	-499.47507	25.03355	613.00946	-486.85190	-205.34593	561.73938	378.25653	-64.64186	559.07489	392.01202	
6127	61.260	-202.24042	36.78624	-445.10880	181.36852	41.38480	-419.31860	-256.24136	12.38107	150.45885	133.52531	18.60312	184.29684	7.94259	781.64276	-722.56744	-127.02777	609.89374	-498.48282	25.99247	612.90009	-486.01089	-203.17029	561.25677	379.28104	-62.58078	558.73920	393.28351	
6128	61.270	-201.08514	36.91895	-444.99789	182.04213	41.49534	-419.05844	-255.01070	12.53521	150.56357	134.51733	18.52159	184.53087	8.54426	782.14600	-722.30048	-125.46969	609.99335	-497.36768	27.81001	612.86182	-485.13394	-201.35133	560.99933	380.47836	-60.32192	558.34027	394.27090	
6129	61.280	-200.02495	37.16080	-444.85046	183.61317	41.64275	-418.74924	-254.12856	12.86007	150.67110	135.84183	18.16255	184.59456	9.16240	782.39893	-722.02759	-123.96700	610.13263	-496.29358	29.62398	612.82947	-483.98813	-198.91544	560.72522	381.47665	-58.10488	557.82349	395.38617	
6130	61.290	-199.36496	37.42611	-444.72623	184.19377	41.66222	-418.93948	-253.01758	12.93667	150.77643	136.73463	18.15310	184.65715	10.02122	782.52240	-721.82880	-122.32001	610.01477	-495.06818	30.88795	612.85480	-483.03104	-196.69138	560.38861	382.71082	-55.73987	557.48016	396.57480	
6131	61.300	-198.55573	37.50562	-444.53326	184.73477	41.57579	-419.28973	-251.91064	12.95415	151.08357	137.64413	18.12483	184.62883	10.82511	782.52124	-721.73328	-120.72194	610.11932	-493.81509	32.75439	612.93719	-482.12317	-194.13342	559.93146	384.07870	-53.38585	557.04303	397.66196	
6132	61.310	-197.39200	37.41773	-444.44147	186.17691	41.92225	-418.94186	-251.04697	12.84680	151.17433	139.30656	18.58813	184.59610	11.66941	782.44678	-721.55743	-118.97010	610.11444	-492.55426	34.05945	612.81390	-480.62018	-191.79317	559.60620	385.39911	-51.05345	556.69971	398.63608	
6133	61.320	-196.13431	37.36970	-444.26443	187.17084	42.21930	-418.65134	-249.94160	13.09028	151.22131	140.25432	18.45720	185.18884	12.77804	782.57202	-721.35992	-116.81749	610.28870	-491.13699	35.90920	612.82147	-479.36270	-189.57103	559.15686	386.83417	-48.63627	556.32739	400.21774	
6134	61.330	-195.26320	37.66001	-444.13629	187.62474	42.09039	-418.76587	-249.64917	13.62379	151.32454	141.46616	18.42686	185.32362	13.69419	782.45612	-721.17810	-115.08966	610.37842	-489.75610	37.73725	613.16223	-478.44894	-187.14186	558.61292	388.01370	-46.06691	555.72247	401.74554	
6135	61.340	-194.61671	37.88091	-444.03253	189.12616	42.35338	-418.59540	-248.12135	13.04560	151.35667	142.34999	18.34926	185.29953	14.41343	782.26196	-720.95581	-112.79958	610.42346	-488.36139	39.37528	613.31604	-476.95694	-184.96053	558.04193	389.59506	-43.89680	555.01855	402.79681	
6136	61.350	-193.66376	37.87177	-444.01624	190.49402	42.54174	-418.06094	-247.21248	12.81551	151.61493	143.33574	18.43359	185.41281	15.13327	782.15637	-720.80524	-110.37993	610.50409	-486.85153	43.78844	613.40088	-475.36417	-182.52205	557.27905	390.98822	-41.77404	554.47040	404.29630	
6137	61.360	-192.65729	37.48017	-444.00104	190.97369	41.99240	-418.57980	-247.08623	12.93100	151.71075	144.72142	18.25812	185.77013	15.77204	782.12115	-720.77454	-107.68409	610.49005	-485.16177	46.46811	613.30261	-473.80121	-180.21878	556.61462	392.59329	-39.31973	553.55542	406.00525	
6138	61.370	-192.50862	37.41538	-444.57422	192.62930	41.82361	-417.97986	-245.71059	13.02351	151.22615	145.88957	17.99706	186.22331	16.22581	782.15161	-720.72052	-104.79727	610.43872	-483.35831	49.39946	613.10803	-471.81027	-177.75624	555.95728	394.29932	-37.00220	552.96808	407.77499	
6139	61.380	-194.17169	42.65311	-442.35596	193.54575	40.16791	-417.55313	-243.77470	13.62462	151.88503	147.21475	16.39760	186.92265	16.60281	782.17206	-720.69525	-101.85544	610.54718	-481.51828	51.99523	613.35364	-469.46234	-175.38031	555.30145	396.11874	-34.54498	552.41949	409.62537	
6140	61.390	-194.07861	56.21334	-436.82202	196.47479	39.84457	-416.75412	-242.18123	14.94057	152.00677	148.86090	16.27470	187.28017	16.92822	782.29169	-720.68268	-98.45039	609.82849	-480.08090	55.62297	613.44543	-467.62561	-173.78087	554.61084	397.36987	-32.90419	552.79309	411.21048	
6141	61.400	-189.61295	72.55258	-433.38382	197.15179	39.36147	-416.85199	-240.23212	13.84113	152.25545	149.84944	16.71659	186.99292	17.73921	782.52435	-720.44159	-95.03214	608.78113	-478.61786	58.93055	613.26471	-465.76840	-171.11514	554.29651	398.63275	-30.88070	552.85449	412.71692	
6142	61.410	-197.68610	88.31114	-435.37622	197.90471	39.61509	-416.55557	-239.94107	13.75217	152.38586	150.20319	16.59471	187.54578	18.78685	782.82471	-720.32959	-92.17242	608.23328	-477.04337	61.99029	613.59503	-464.44394	-169.54445	554.02814	400.40216	-28.66174	552.74475	414.32590	
6143	61.420	-197.60960	106.24738	-441.71964	199.82457	39.88475	-416.03192	-238.88284	14.23756	152.50668	151.89833	16.53510	187.51886	19.13187	783.22028	-720.24408	-89.98299	607.65149	-475.46701	63.77653	613.38470	-462.53391	-167.24745	553.45447	401.95621	-26.51901	552.92175	415.98465	
6144	61.430	-201.28188	122.49208	-446.56613	199.91469	39.81280	-416.40887	-237.06163	14.04645	152.90424	153.15135	15.98735	187.97487	19.00021	783.43933	-719.91064	-88.13283	607.99017	-474.01392	65.62167	614.00159	-461.17566	-164.73482	552.69989	403.53632	-24.24451	552.41888	417.62698	
6145	61.440	-197.69331	137.10835	-447.82968	198.54741	39.19984	-419.05655	-236.79103	14.90718	152.74112	154.26080	15.76240	187.86235	19.28005	783.52667	-719.91479	-86.57268	608.73529	-472.47983	66.87799	614.50507	-459.74942	-162.53914	552.06592	405.03156	-21.49762	551.78375	419.03348	
6146	61.450	-196.35826	149.47983	-445.39127	199.50610	39.66217	-417.99646	-235.64577	15.18498	153.00592	155.12875	15.41258	187.88585	19.98261	783.67468	-719.75745	-85.51406	609.22980	-471.12103	68.59876	615.30511	-458.83041	-160.49072	551.31879	406.30130	-19.74990	551.11877	419.94635	
6147	61.460	-195.14769	159.40398	-441.72678	200.29254	39.79549	-418.12112	-233.83276	14.47544	153.75800	156.18748	15.39555	187.87175	21.17729	783.62097	-719.51270	-84.37842	609.62732	-469.79562	69.50437	615.65509	-457.79196	-158.69649	550.72784	407.44351	-17.96852	550.53320	421.37460	
6148	61.470	-193.65547	171.63699	-439.90146	201.01944	39.91347	-418.12079	-233.75876	15.28427	153.49167	156.86040	15.35458	187.86536	23.05497	783.54614	-719.42993	-83.24683	609.61597	-468.55673	70.50320	615.83734	-456.66412	-157.09439	550.36456	408.80670	-16.24026	550.21625	422.28842	
6149	61.480	-196.72159	183.32509	-439.37778	201.98206	39.87430	-418.01804	-233.37193	15.33554	153.51933	157.02792	14.97239	187.73785	24.89224	783.44427	-719.71997	-82.37147	609.40149	-467.59024	71.82019	615.84546	-455.41589	-155.68491	550.03741	409.92773	-14.70313	550.12463	423.86945	
6150	61.490	-195.46425	195.46680	-439.15659	203.07521	39.71520	-417.85056	-231.39238	14.35147	153.74776	158.68269	15.56951	188.27986	26.80003	783.58759	-719.62109	-81.47464	609.05615	-466.66309	72.65429	615.40735	-454.85843	-154.85068	550.30762	410.83865	-13.85301	550.11456	424.29565	
6151	61.500	-195.94650	205.75858	-437.41208	205.69551	40.53734	-416.12436	-231.32037	14.95004	153.60115	159.40771	15.61794	188.22017	28.80433	784.31232	-719.42883	-80.80119	608.73621	-465.99969	73.26207	614.88165	-454.11618	-153.65314	550.33887	411.73746	-12.61079	550.04114	425.29660	
6152	61.510	-194.78021	211.21367	-433.90594	205.96622	40.29832	-416.51511	-230.39040	14.92063	153.88354	160.19594	15.64633	188.28069	31.17243	785.75916	-718.61621	-80.35397	608.26056	-465.30170	73.39008	614.32996	-452.95648	-152.87897	550.28125	412.25323	-11.95016	550.06976	425.63058	
6153	61.520	-191.73744	213.45905	-429.38614	206.95097	40.49221	-416.59277	-229.58829	14.76798	153.88808	161.19843	15.71361	188.21117	33.87814	787.99420	-717.04413	-79.97140	607.86017	-464.86017	73.88885	614.05298	-453.07910	-152.20540	550.23273	412.71747	-11.37257	549.83875	426.05777	
6154	61.530	-189.80354	213.32443	-424.92899	207.88165	40.52831	-416.51782	-228.45161	13.99316	154.11705	161.85953	15.66759	188.23677	36.88450	790.68768	-715.41077	-79.55230	607.65625	-464.45889	74.27190	613.64337	-452.32977	-151.73880	549.91614	413.19382	-10.54431	549.55286	426.99130	
6155	61.540	-187.11221	211.59946	-421.51846	208.77444	40.63851	-416.11899	-228.90350	14.87668	153.88037	161.85834	15.12844	188.05836	39.73723	793.38879	-713.52417	-79.05754	607.64484	-464.16428	75.03271	613.81274	-452.36368	-151.64508	549.31146	413.65659	-10.67722	549.25818	427.08954	
6156	61.550	-184.97186	210.77649	-418.73584	209.17899	40.76732	-416.04041	-227.50269	14.27414	153.66510	163.28290	15.87628	188.35664	42.36676	795.53137	-711.93665	-78.29045	608.02808	-463.76743	75.92328	614.12396	-451.58057	-151.65840	548.99561	413.74487	-10.86982	548.89563	427.42947	
6157	61.560	-183.21651	210.13661	-416.42841	210.31818	40.91998	-415.82724	-227.05962	14.10840	153.60081	163.87721	15.92421	188.41925	43.42447	797.41064	-710.76154	-77.38827	608.26025	-463.29617	76.44926	614.52960	-451.15860	-152.13860	548.39197	413.92487	-11.33200	548.21545	427.61285	
6158	61.570	-183.05533	209.76862	-415.03793	211.37917	41.01192	-415.62646	-226.52109	14.03878	153.61751	164.51001	15.94313	188.56702	43.87921	798.56610	-709.88879	-76.33687	608.74896	-462.98917	77.60368	614.97534	-450.50296	-152.87320	547.83813	413.98221	-12.07733	547.53729	427.98752	
6159	61.580	-183.11351	209.49577	-414.24863	212.23039	40.84785	-415.41495	-226.47461	14.15021	153.70444	165.16881	16.04584	188.77361	43.67103	798.98865	-709.23413	-75.35706	609.28552	-462.53726	78.62365	615.40399	-449.64792	-153.54004	547.10370	414.32852	-12.83914	546.97565	428.68677	
6160	61.590	-183.46744	208.20938	-414.57922	213.23300	40.78722	-415.10696	-225.31360	13.61527	153.64590	165.60092	16.07156	188.85510	42.83934	798.70654	-709.25336	-74.39629	609.86383	-461.95346	79.19745	615.80994	-448.52359	-154.17497	546.52588	414.56818	-13.04108	546.44189	429.75546	
6161	61.600	-185.36620	202.73378	-415.22092	214.08525	40.65461	-415.10059	-224.78050	13.41288	153.41917	166.03220	16.12157	188.90442	41.34510	798.17426	-709.41626	-73.80264	610.53424	-461.48337	80.07261	616.59631	-448.05630	-154.64937	546.36981	414.90134	-13.77429	546.02722	429.75211	
6162	61.610	-186.71507	193.24835	-416.79938	214.79494	40.63108	-415.22739	-224.18629	13.82843	153.74309	166.71574	16.25319	189.09961	40.67637	797.59259	-709.55341	-73.58459	611.10284	-461.06680	80.06595	616.80951	-447.26471	-154.76158	546.13269	415.48785	-14.00204	545.95923	430.33127	
6163	61.620	-188.72806	178.67674	-418.88364	215.09071	40.79177	-415.58005	-223.14717	13.63861	153.68655	167.50539	16.30701	189.11871	39.58672	796.94092	-709.94647	-73.71106	611.72302	-460.40195	80.09084	617.41193	-447.12314	-154.80389	546.15460	416.10831	-14.06894	545.70178	430.78171	
